<svg xmlns="http://www.w3.org/2000/svg" width="1438" height="810" viewBox="0 0 1438 810" role="img" aria-label="HAREKÂT store page background">
  <defs>
    <linearGradient id="pbg" x1="0" y1="0" x2="1" y2="1">
      <stop offset="0%" stop-color="#18080a"/>
      <stop offset="45%" stop-color="#0b0b0b"/>
      <stop offset="100%" stop-color="#0a1218"/>
    </linearGradient>
    <radialGradient id="glow" cx="20%" cy="30%" r="50%">
      <stop offset="0%" stop-color="#E30A17" stop-opacity="0.18"/>
      <stop offset="100%" stop-color="#E30A17" stop-opacity="0"/>
    </radialGradient>
  </defs>
  <rect width="1438" height="810" fill="url(#pbg)"/>
  <rect width="1438" height="810" fill="url(#glow)"/>
  <path d="M0 520 L180 400 L360 480 L580 300 L820 450 L1080 280 L1280 400 L1438 340 L1438 810 L0 810 Z" fill="#141414" opacity="0.9"/>
  <path d="M0 620 L250 520 L500 600 L780 480 L1100 580 L1438 500 L1438 810 L0 810 Z" fill="#0e0e0e"/>
  <!-- Soft grid -->
  <g stroke="#ffffff" stroke-opacity="0.04" stroke-width="1">
    <path d="M0 135 H1438 M0 270 H1438 M0 405 H1438 M0 540 H1438 M0 675 H1438"/>
    <path d="M144 0 V810 M288 0 V810 M432 0 V810 M576 0 V810 M720 0 V810 M864 0 V810 M1008 0 V810 M1152 0 V810 M1296 0 V810"/>
  </g>
  <text x="80" y="120" font-family="Impact, Haettenschweiler, sans-serif" font-size="64" letter-spacing="8" fill="#F5F5F5" fill-opacity="0.35">HAREKÂT</text>
  <text x="80" y="160" font-family="Segoe UI, Helvetica, Arial, sans-serif" font-size="18" letter-spacing="6" fill="#E30A17" fill-opacity="0.55">KUZGUN VAD0S0</text>
</svg>
