<?xml version="1.0" encoding="UTF-8"?>
<svg xmlns="http://www.w3.org/2000/svg" viewBox="0 0 128 128" role="img" aria-label="Kaplan Timi">
  <title>Kaplan Timi — özgün stilize amblem</title>
  <circle cx="64" cy="64" r="60" fill="#1A120C" stroke="#D4722A" stroke-width="3"/>
  <circle cx="64" cy="64" r="52" fill="none" stroke="#D4722A" stroke-width="1" opacity="0.45"/>
  <ellipse cx="64" cy="58" rx="30" ry="26" fill="#D4722A"/>
  <path d="M40 48c6 2 8 8 6 14M52 40c2 8 0 16-2 22M64 38v28M76 40c-2 8 0 16 2 22M88 48c-6 2-8 8-6 14" stroke="#1A120C" stroke-width="3.5" stroke-linecap="round" fill="none"/>
  <ellipse cx="52" cy="56" rx="3" ry="4" fill="#1A120C"/>
  <ellipse cx="76" cy="56" rx="3" ry="4" fill="#1A120C"/>
  <path d="M58 68c4 4 8 4 12 0" stroke="#1A120C" stroke-width="2" fill="none"/>
  <path d="M44 42l-10-8M84 42l10-8" stroke="#D4722A" stroke-width="3" stroke-linecap="round"/>
  <circle cx="64" cy="100" r="6.3" fill="#F2A900"/>
  <circle cx="65.89" cy="99.62" r="4.41" fill="#1A120C"/>
  <polygon points="71.25,100 67.47,97.8 69.36,100 67.47,102.21" fill="#F2A900"/>
</svg>
