<?xml version="1.0" encoding="UTF-8"?>
<svg xmlns="http://www.w3.org/2000/svg" viewBox="0 0 720 780" width="720" height="780">
  <title>Kuzgun Barajı — Yakın Plan</title>
  <rect width="100%" height="100%" fill="#d8d2b8"/>
  <text x="60" y="28" font-family="sans-serif" font-size="18" font-weight="700">Kuzgun Barajı — YAKIN PLAN</text>
  <text x="60" y="48" font-family="sans-serif" font-size="11" fill="#333">Grid F9 · Merkez (20, -345) · Yarıçap 65 m · Ölçek yerel</text>
  <rect x="60" y="60" width="600" height="600" fill="#c5c09a" stroke="#3d3a2a" stroke-width="2"/>

  <circle cx="360.0" cy="360.0" r="222.2" fill="none" stroke="#8B0000" stroke-width="1.5" stroke-dasharray="5 3"/>
  <path d="M454.6,363.2 L462.6,343.2 L470.6,363.2 Z" fill="#c45c12"/>
  <text x="472.6" y="353.2" font-size="10" font-family="sans-serif" fill="#8a3a00">Baraj yolu</text>
  <path d="M352.0,216.2 L360.0,196.2 L368.0,216.2 Z" fill="#c45c12"/>
  <text x="370.0" y="206.2" font-size="10" font-family="sans-serif" fill="#8a3a00">Gölet kuzeyi</text>
  <path d="M365.7,575.1 L373.7,555.1 L381.7,575.1 Z" fill="#c45c12"/>
  <text x="383.7" y="565.1" font-size="10" font-family="sans-serif" fill="#8a3a00">Dere güney</text>
  <rect x="332.6" y="346.3" width="54.7" height="27.4" fill="#6b5a45" stroke="#2a2218" stroke-width="1" transform="rotate(90 360.0 360.0)"/>
  <text x="360.0" y="343.3" text-anchor="middle" font-size="9" font-family="sans-serif">Kontrol binası</text>
  <rect x="295.0" y="298.5" width="27.4" height="20.5" fill="#6b5a45" stroke="#2a2218" stroke-width="1" transform="rotate(0 308.7 308.7)"/>
  <text x="308.7" y="295.5" text-anchor="middle" font-size="9" font-family="sans-serif">Kapak evi</text>
  <rect x="411.3" y="366.8" width="34.2" height="20.5" fill="#6b5a45" stroke="#2a2218" stroke-width="1" transform="rotate(0 428.4 377.1)"/>
  <text x="428.4" y="363.8" text-anchor="middle" font-size="9" font-family="sans-serif">Bakım</text>
  <circle cx="462.6" cy="274.5" r="6" fill="none" stroke="#8B0000" stroke-width="2"/>
  <circle cx="462.6" cy="274.5" r="2" fill="#8B0000"/>
  <text x="470.6" y="268.5" font-size="10" font-family="sans-serif" fill="#8B0000">KN: Doğu ayak</text>
  <circle cx="257.4" cy="411.3" r="6" fill="none" stroke="#8B0000" stroke-width="2"/>
  <circle cx="257.4" cy="411.3" r="2" fill="#8B0000"/>
  <text x="265.4" y="405.3" font-size="10" font-family="sans-serif" fill="#8B0000">KN: Batı ayak</text>
  <text x="60" y="684" font-family="sans-serif" font-size="11" font-weight="600">Mevzi / giriş notları</text>
  <text x="60" y="702" font-family="sans-serif" font-size="10" fill="#222">1. Dar baraj tepesi — flanş ateşi ölümcül.</text>
  <text x="60" y="718" font-family="sans-serif" font-size="10" fill="#222">2. Gölet kuzeyi açık alan.</text>
  <text x="60" y="734" font-family="sans-serif" font-size="10" fill="#222">3. Ana yol doğudan geçer; kaçış güney boğaz.</text>
</svg>
