<?xml version="1.0" encoding="UTF-8"?>
<svg xmlns="http://www.w3.org/2000/svg" viewBox="0 0 720 780" width="720" height="780">
  <title>Taş Ocağı — Yakın Plan</title>
  <rect width="100%" height="100%" fill="#d8d2b8"/>
  <text x="60" y="28" font-family="sans-serif" font-size="18" font-weight="700">Taş Ocağı — YAKIN PLAN</text>
  <text x="60" y="48" font-family="sans-serif" font-size="11" fill="#333">Grid C7 · Merkez (-282, -150) · Yarıçap 70 m · Ölçek yerel</text>
  <rect x="60" y="60" width="600" height="600" fill="#c5c09a" stroke="#3d3a2a" stroke-width="2"/>

  <circle cx="360.0" cy="360.0" r="222.2" fill="none" stroke="#8B0000" stroke-width="1.5" stroke-dasharray="5 3"/>
  <path d="M447.2,351.0 L455.2,331.0 L463.2,351.0 Z" fill="#c45c12"/>
  <text x="465.2" y="341.0" font-size="10" font-family="sans-serif" fill="#8a3a00">Ocak yolu</text>
  <path d="M294.9,465.2 L302.9,445.2 L310.9,465.2 Z" fill="#c45c12"/>
  <text x="312.9" y="455.2" font-size="10" font-family="sans-serif" fill="#8a3a00">GB yamaç</text>
  <path d="M421.8,211.3 L429.8,191.3 L437.8,211.3 Z" fill="#c45c12"/>
  <text x="439.8" y="201.3" font-size="10" font-family="sans-serif" fill="#8a3a00">Kuzey sırt</text>
  <rect x="375.9" y="312.4" width="44.4" height="31.7" fill="#6b5a45" stroke="#2a2218" stroke-width="1" transform="rotate(20 398.1 328.3)"/>
  <text x="398.1" y="309.4" text-anchor="middle" font-size="9" font-family="sans-serif">İş makinesi hangarı</text>
  <rect x="306.0" y="382.2" width="25.4" height="19.0" fill="#6b5a45" stroke="#2a2218" stroke-width="1" transform="rotate(0 318.7 391.7)"/>
  <text x="318.7" y="379.2" text-anchor="middle" font-size="9" font-family="sans-serif">Baraka</text>
  <rect x="414.0" y="394.9" width="31.7" height="25.4" fill="#6b5a45" stroke="#2a2218" stroke-width="1" transform="rotate(-10 429.8 407.6)"/>
  <text x="429.8" y="391.9" text-anchor="middle" font-size="9" font-family="sans-serif">Depo</text>
  <circle cx="461.6" cy="264.8" r="6" fill="none" stroke="#8B0000" stroke-width="2"/>
  <circle cx="461.6" cy="264.8" r="2" fill="#8B0000"/>
  <text x="469.6" y="258.8" font-size="10" font-family="sans-serif" fill="#8B0000">KN: KD teras</text>
  <circle cx="271.1" cy="328.3" r="6" fill="none" stroke="#8B0000" stroke-width="2"/>
  <circle cx="271.1" cy="328.3" r="2" fill="#8B0000"/>
  <text x="279.1" y="322.3" font-size="10" font-family="sans-serif" fill="#8B0000">KN: Batı duvar</text>
  <text x="60" y="684" font-family="sans-serif" font-size="11" font-weight="600">Mevzi / giriş notları</text>
  <text x="60" y="702" font-family="sans-serif" font-size="10" fill="#222">1. Basamaklı arazi çoklu yükseklik avantajı.</text>
  <text x="60" y="718" font-family="sans-serif" font-size="10" fill="#222">2. Toz/gürültü maskeleme; görüş kısa.</text>
  <text x="60" y="734" font-family="sans-serif" font-size="10" fill="#222">3. Ocak yolu tek ana araç girişi — pusu noktası.</text>
</svg>
